# xmcd
#
# Track frame offsets: 
#        150
#        24978
#        44375
#        59326
#        73226
#        91589
#        109645
#        129681
#        157466
#
# Disc length: 2359 seconds
#
# Revision: 0
# Processed by: cddbd v1.5.2PL0 Copyright (c) Steve Scherf et al.
# Submitted via: ExactAudioCopy v0.90b4
#
DISCID=7a093509
DTITLE=Isley Brothers - 3+3 DTS
DYEAR=1900
DGENRE=Soul
TTITLE0=That Lady, Pts. 1 and 2
TTITLE1=Don't Let Me Be Lonely Tonight
TTITLE2=If You Were There
TTITLE3=You Walk Your Way
TTITLE4=Listen to the Music
TTITLE5=What It Comes Down To
TTITLE6=Sunshine (Go Away Today)
TTITLE7=Summer Breeze
TTITLE8=Highways of My Life
EXTD=
EXTT0=
EXTT1=
EXTT2=
EXTT3=
EXTT4=
EXTT5=
EXTT6=
EXTT7=
EXTT8=
PLAYORDER=
